<svg xmlns="http://www.w3.org/2000/svg" width="800" height="200" viewBox="0 0 800 200">
<line x1="10" y1="10" x2="10" y2="190" stroke="#8883" stroke-width="1"/>
<line x1="58.75" y1="10" x2="58.75" y2="190" stroke="#8883" stroke-width="1"/>
<line x1="107.5" y1="10" x2="107.5" y2="190" stroke="#8883" stroke-width="1"/>
<line x1="156.25" y1="10" x2="156.25" y2="190" stroke="#8883" stroke-width="1"/>
<line x1="205" y1="10" x2="205" y2="190" stroke="#8883" stroke-width="1"/>
<line x1="253.75" y1="10" x2="253.75" y2="190" stroke="#8883" stroke-width="1"/>
<line x1="302.5" y1="10" x2="302.5" y2="190" stroke="#8883" stroke-width="1"/>
<line x1="351.25" y1="10" x2="351.25" y2="190" stroke="#8883" stroke-width="1"/>
<line x1="400" y1="10" x2="400" y2="190" stroke="#8883" stroke-width="1"/>
<line x1="448.75" y1="10" x2="448.75" y2="190" stroke="#8883" stroke-width="1"/>
<line x1="497.5" y1="10" x2="497.5" y2="190" stroke="#8883" stroke-width="1"/>
<line x1="546.25" y1="10" x2="546.25" y2="190" stroke="#8883" stroke-width="1"/>
<line x1="595" y1="10" x2="595" y2="190" stroke="#8883" stroke-width="1"/>
<line x1="643.75" y1="10" x2="643.75" y2="190" stroke="#8883" stroke-width="1"/>
<line x1="692.5" y1="10" x2="692.5" y2="190" stroke="#8883" stroke-width="1"/>
<line x1="741.25" y1="10" x2="741.25" y2="190" stroke="#8883" stroke-width="1"/>
<line x1="790" y1="10" x2="790" y2="190" stroke="#8883" stroke-width="1"/>
<line x1="10" y1="190" x2="790" y2="190" stroke="#8883" stroke-width="1"/>
<line x1="10" y1="145" x2="790" y2="145" stroke="#8883" stroke-width="1"/>
<line x1="10" y1="100" x2="790" y2="100" stroke="#8883" stroke-width="1"/>
<line x1="10" y1="55" x2="790" y2="55" stroke="#8883" stroke-width="1"/>
<line x1="10" y1="10" x2="790" y2="10" stroke="#8883" stroke-width="1"/>
<line x1="10" y1="190" x2="790" y2="190" stroke="#8888" stroke-width="1"/>
<line x1="10" y1="10" x2="10" y2="190" stroke="#8888" stroke-width="1"/>
<path d="M10.00,190.00L13.90,190.00L17.80,190.00L21.70,190.00L25.60,190.00L29.50,190.00L33.40,190.00L37.30,190.00L41.20,190.00L45.10,190.00L49.00,190.00L52.90,190.00L56.80,190.00L60.70,190.00L64.60,190.00L68.50,190.00L72.40,190.00L76.30,189.98L80.20,189.95L84.10,189.82L88.00,188.84L91.90,183.71L95.80,170.00L99.70,148.44L103.60,124.07L107.50,100.00L111.40,75.93L115.30,51.56L119.20,30.00L123.10,16.29L127.00,11.16L130.90,10.18L134.80,10.05L138.70,10.02L142.60,10.00L146.50,10.00L150.40,10.00L154.30,10.00L158.20,10.00L162.10,10.00L166.00,10.00L169.90,10.00L173.80,10.00L177.70,10.00L181.60,10.00L185.50,10.00L189.40,10.00L193.30,10.00L197.20,10.00L201.10,10.00L205.00,10.00L208.90,10.00L212.80,10.00L216.70,10.00L220.60,10.00L224.50,10.00L228.40,10.00L232.30,10.00L236.20,10.00L240.10,10.00L244.00,10.00L247.90,10.00L251.80,10.00L255.70,10.00L259.60,10.00L263.50,10.00L267.40,10.00L271.30,10.02L275.20,10.05L279.10,10.18L283.00,11.16L286.90,16.29L290.80,30.00L294.70,51.56L298.60,75.93L302.50,100.00L306.40,124.07L310.30,148.44L314.20,170.00L318.10,183.71L322.00,188.84L325.90,189.82L329.80,189.95L333.70,189.98L337.60,190.00L341.50,190.00L345.40,190.00L349.30,190.00L353.20,190.00L357.10,190.00L361.00,190.00L364.90,190.00L368.80,190.00L372.70,190.00L376.60,190.00L380.50,190.00L384.40,190.00L388.30,190.00L392.20,190.00L396.10,190.00L400.00,190.00L403.90,190.00L407.80,190.00L411.70,190.00L415.60,190.00L419.50,190.00L423.40,190.00L427.30,190.00L431.20,190.00L435.10,190.00L439.00,190.00L442.90,190.00L446.80,190.00L450.70,190.00L454.60,190.00L458.50,190.00L462.40,190.00L466.30,189.98L470.20,189.95L474.10,189.82L478.00,188.84L481.90,183.71L485.80,170.00L489.70,148.44L493.60,124.07L497.50,100.00L501.40,75.93L505.30,51.56L509.20,30.00L513.10,16.29L517.00,11.16L520.90,10.18L524.80,10.05L528.70,10.02L532.60,10.00L536.50,10.00L540.40,10.00L544.30,10.00L548.20,10.00L552.10,10.00L556.00,10.00L559.90,10.00L563.80,10.00L567.70,10.00L571.60,10.00L575.50,10.00L579.40,10.00L583.30,10.00L587.20,10.00L591.10,10.00L595.00,10.00L598.90,10.00L602.80,10.00L606.70,10.00L610.60,10.00L614.50,10.00L618.40,10.00L622.30,10.00L626.20,10.00L630.10,10.00L634.00,10.00L637.90,10.00L641.80,10.00L645.70,10.00L649.60,10.00L653.50,10.00L657.40,10.00L661.30,10.02L665.20,10.05L669.10,10.18L673.00,11.16L676.90,16.29L680.80,30.00L684.70,51.56L688.60,75.93L692.50,100.00L696.40,124.07L700.30,148.44L704.20,170.00L708.10,183.71L712.00,188.84L715.90,189.82L719.80,189.95L723.70,189.98L727.60,190.00L731.50,190.00L735.40,190.00L739.30,190.00L743.20,190.00L747.10,190.00L751.00,190.00L754.90,190.00L758.80,190.00L762.70,190.00L766.60,190.00L770.50,190.00L774.40,190.00L778.30,190.00L782.20,190.00L786.10,190.00L790.00,190.00" fill="none" stroke="orange" stroke-width="1.25"/>
<path d="M10.00,190.00L13.90,190.00L17.80,190.00L21.70,190.00L25.60,190.00L29.50,190.00L33.40,190.00L37.30,190.00L41.20,189.99L45.10,189.98L49.00,189.95L52.90,189.88L56.80,189.74L60.70,189.48L64.60,189.03L68.50,188.28L72.40,187.05L76.30,185.13L80.20,182.19L84.10,177.79L88.00,171.40L91.90,162.48L95.80,150.62L99.70,135.83L103.60,118.60L107.50,100.00L111.40,81.40L115.30,64.17L119.20,49.38L123.10,37.52L127.00,28.60L130.90,22.21L134.80,17.81L138.70,14.87L142.60,12.95L146.50,11.72L150.40,10.97L154.30,10.52L158.20,10.26L162.10,10.12L166.00,10.05L169.90,10.02L173.80,10.01L177.70,10.00L181.60,10.00L185.50,10.00L189.40,10.00L193.30,10.00L197.20,10.00L201.10,10.00L205.00,10.00L208.90,10.00L212.80,10.00L216.70,10.00L220.60,10.00L224.50,10.00L228.40,10.00L232.30,10.00L236.20,10.01L240.10,10.02L244.00,10.05L247.90,10.12L251.80,10.26L255.70,10.52L259.60,10.97L263.50,11.72L267.40,12.95L271.30,14.87L275.20,17.81L279.10,22.21L283.00,28.60L286.90,37.52L290.80,49.38L294.70,64.17L298.60,81.40L302.50,100.00L306.40,118.60L310.30,135.83L314.20,150.62L318.10,162.48L322.00,171.40L325.90,177.79L329.80,182.19L333.70,185.13L337.60,187.05L341.50,188.28L345.40,189.03L349.30,189.48L353.20,189.74L357.10,189.88L361.00,189.95L364.90,189.98L368.80,189.99L372.70,190.00L376.60,190.00L380.50,190.00L384.40,190.00L388.30,190.00L392.20,190.00L396.10,190.00L400.00,190.00L403.90,190.00L407.80,190.00L411.70,190.00L415.60,190.00L419.50,190.00L423.40,190.00L427.30,190.00L431.20,189.99L435.10,189.98L439.00,189.95L442.90,189.88L446.80,189.74L450.70,189.48L454.60,189.03L458.50,188.28L462.40,187.05L466.30,185.13L470.20,182.19L474.10,177.79L478.00,171.40L481.90,162.48L485.80,150.62L489.70,135.83L493.60,118.60L497.50,100.00L501.40,81.40L505.30,64.17L509.20,49.38L513.10,37.52L517.00,28.60L520.90,22.21L524.80,17.81L528.70,14.87L532.60,12.95L536.50,11.72L540.40,10.97L544.30,10.52L548.20,10.26L552.10,10.12L556.00,10.05L559.90,10.02L563.80,10.01L567.70,10.00L571.60,10.00L575.50,10.00L579.40,10.00L583.30,10.00L587.20,10.00L591.10,10.00L595.00,10.00L598.90,10.00L602.80,10.00L606.70,10.00L610.60,10.00L614.50,10.00L618.40,10.00L622.30,10.00L626.20,10.01L630.10,10.02L634.00,10.05L637.90,10.12L641.80,10.26L645.70,10.52L649.60,10.97L653.50,11.72L657.40,12.95L661.30,14.87L665.20,17.81L669.10,22.21L673.00,28.60L676.90,37.52L680.80,49.38L684.70,64.17L688.60,81.40L692.50,100.00L696.40,118.60L700.30,135.83L704.20,150.62L708.10,162.48L712.00,171.40L715.90,177.79L719.80,182.19L723.70,185.13L727.60,187.05L731.50,188.28L735.40,189.03L739.30,189.48L743.20,189.74L747.10,189.88L751.00,189.95L754.90,189.98L758.80,189.99L762.70,190.00L766.60,190.00L770.50,190.00L774.40,190.00L778.30,190.00L782.20,190.00L786.10,190.00L790.00,190.00" fill="none" stroke="green" stroke-width="1.25"/>
<path d="M10.00,190.00L13.90,189.99L17.80,189.94L21.70,189.87L25.60,189.75L29.50,189.58L33.40,189.33L37.30,188.97L41.20,188.47L45.10,187.77L49.00,186.82L52.90,185.54L56.80,183.87L60.70,181.71L64.60,178.97L68.50,175.58L72.40,171.46L76.30,166.53L80.20,160.76L84.10,154.13L88.00,146.65L91.90,138.40L95.80,129.46L99.70,119.97L103.60,110.08L107.50,100.00L111.40,89.92L115.30,80.03L119.20,70.54L123.10,61.60L127.00,53.35L130.90,45.87L134.80,39.24L138.70,33.47L142.60,28.54L146.50,24.42L150.40,21.03L154.30,18.29L158.20,16.13L162.10,14.46L166.00,13.18L169.90,12.23L173.80,11.53L177.70,11.03L181.60,10.67L185.50,10.42L189.40,10.25L193.30,10.13L197.20,10.06L201.10,10.01L205.00,10.00L208.90,10.01L212.80,10.06L216.70,10.13L220.60,10.25L224.50,10.42L228.40,10.67L232.30,11.03L236.20,11.53L240.10,12.23L244.00,13.18L247.90,14.46L251.80,16.13L255.70,18.29L259.60,21.03L263.50,24.42L267.40,28.54L271.30,33.47L275.20,39.24L279.10,45.87L283.00,53.35L286.90,61.60L290.80,70.54L294.70,80.03L298.60,89.92L302.50,100.00L306.40,110.08L310.30,119.97L314.20,129.46L318.10,138.40L322.00,146.65L325.90,154.13L329.80,160.76L333.70,166.53L337.60,171.46L341.50,175.58L345.40,178.97L349.30,181.71L353.20,183.87L357.10,185.54L361.00,186.82L364.90,187.77L368.80,188.47L372.70,188.97L376.60,189.33L380.50,189.58L384.40,189.75L388.30,189.87L392.20,189.94L396.10,189.99L400.00,190.00L403.90,189.99L407.80,189.94L411.70,189.87L415.60,189.75L419.50,189.58L423.40,189.33L427.30,188.97L431.20,188.47L435.10,187.77L439.00,186.82L442.90,185.54L446.80,183.87L450.70,181.71L454.60,178.97L458.50,175.58L462.40,171.46L466.30,166.53L470.20,160.76L474.10,154.13L478.00,146.65L481.90,138.40L485.80,129.46L489.70,119.97L493.60,110.08L497.50,100.00L501.40,89.92L505.30,80.03L509.20,70.54L513.10,61.60L517.00,53.35L520.90,45.87L524.80,39.24L528.70,33.47L532.60,28.54L536.50,24.42L540.40,21.03L544.30,18.29L548.20,16.13L552.10,14.46L556.00,13.18L559.90,12.23L563.80,11.53L567.70,11.03L571.60,10.67L575.50,10.42L579.40,10.25L583.30,10.13L587.20,10.06L591.10,10.01L595.00,10.00L598.90,10.01L602.80,10.06L606.70,10.13L610.60,10.25L614.50,10.42L618.40,10.67L622.30,11.03L626.20,11.53L630.10,12.23L634.00,13.18L637.90,14.46L641.80,16.13L645.70,18.29L649.60,21.03L653.50,24.42L657.40,28.54L661.30,33.47L665.20,39.24L669.10,45.87L673.00,53.35L676.90,61.60L680.80,70.54L684.70,80.03L688.60,89.92L692.50,100.00L696.40,110.08L700.30,119.97L704.20,129.46L708.10,138.40L712.00,146.65L715.90,154.13L719.80,160.76L723.70,166.53L727.60,171.46L731.50,175.58L735.40,178.97L739.30,181.71L743.20,183.87L747.10,185.54L751.00,186.82L754.90,187.77L758.80,188.47L762.70,188.97L766.60,189.33L770.50,189.58L774.40,189.75L778.30,189.87L782.20,189.94L786.10,189.99L790.00,190.00" fill="none" stroke="steelblue" stroke-width="1.25"/>
<path d="M10.00,190.00L13.90,189.96L17.80,189.80L21.70,189.50L25.60,189.00L29.50,188.28L33.40,187.30L37.30,186.01L41.20,184.39L45.10,182.41L49.00,180.05L52.90,177.27L56.80,174.08L60.70,170.47L64.60,166.43L68.50,161.96L72.40,157.09L76.30,151.84L80.20,146.22L84.10,140.27L88.00,134.03L91.90,127.53L95.80,120.83L99.70,113.98L103.60,107.02L107.50,100.00L111.40,92.98L115.30,86.02L119.20,79.17L123.10,72.47L127.00,65.97L130.90,59.73L134.80,53.78L138.70,48.16L142.60,42.91L146.50,38.04L150.40,33.57L154.30,29.53L158.20,25.92L162.10,22.73L166.00,19.95L169.90,17.59L173.80,15.61L177.70,13.99L181.60,12.70L185.50,11.72L189.40,11.00L193.30,10.50L197.20,10.20L201.10,10.04L205.00,10.00L208.90,10.04L212.80,10.20L216.70,10.50L220.60,11.00L224.50,11.72L228.40,12.70L232.30,13.99L236.20,15.61L240.10,17.59L244.00,19.95L247.90,22.73L251.80,25.92L255.70,29.53L259.60,33.57L263.50,38.04L267.40,42.91L271.30,48.16L275.20,53.78L279.10,59.73L283.00,65.97L286.90,72.47L290.80,79.17L294.70,86.02L298.60,92.98L302.50,100.00L306.40,107.02L310.30,113.98L314.20,120.83L318.10,127.53L322.00,134.03L325.90,140.27L329.80,146.22L333.70,151.84L337.60,157.09L341.50,161.96L345.40,166.43L349.30,170.47L353.20,174.08L357.10,177.27L361.00,180.05L364.90,182.41L368.80,184.39L372.70,186.01L376.60,187.30L380.50,188.28L384.40,189.00L388.30,189.50L392.20,189.80L396.10,189.96L400.00,190.00L403.90,189.96L407.80,189.80L411.70,189.50L415.60,189.00L419.50,188.28L423.40,187.30L427.30,186.01L431.20,184.39L435.10,182.41L439.00,180.05L442.90,177.27L446.80,174.08L450.70,170.47L454.60,166.43L458.50,161.96L462.40,157.09L466.30,151.84L470.20,146.22L474.10,140.27L478.00,134.03L481.90,127.53L485.80,120.83L489.70,113.98L493.60,107.02L497.50,100.00L501.40,92.98L505.30,86.02L509.20,79.17L513.10,72.47L517.00,65.97L520.90,59.73L524.80,53.78L528.70,48.16L532.60,42.91L536.50,38.04L540.40,33.57L544.30,29.53L548.20,25.92L552.10,22.73L556.00,19.95L559.90,17.59L563.80,15.61L567.70,13.99L571.60,12.70L575.50,11.72L579.40,11.00L583.30,10.50L587.20,10.20L591.10,10.04L595.00,10.00L598.90,10.04L602.80,10.20L606.70,10.50L610.60,11.00L614.50,11.72L618.40,12.70L622.30,13.99L626.20,15.61L630.10,17.59L634.00,19.95L637.90,22.73L641.80,25.92L645.70,29.53L649.60,33.57L653.50,38.04L657.40,42.91L661.30,48.16L665.20,53.78L669.10,59.73L673.00,65.97L676.90,72.47L680.80,79.17L684.70,86.02L688.60,92.98L692.50,100.00L696.40,107.02L700.30,113.98L704.20,120.83L708.10,127.53L712.00,134.03L715.90,140.27L719.80,146.22L723.70,151.84L727.60,157.09L731.50,161.96L735.40,166.43L739.30,170.47L743.20,174.08L747.10,177.27L751.00,180.05L754.90,182.41L758.80,184.39L762.70,186.01L766.60,187.30L770.50,188.28L774.40,189.00L778.30,189.50L782.20,189.80L786.10,189.96L790.00,190.00" fill="none" stroke="blue" stroke-width="1.25"/>
<path d="M10.00,190.00L13.90,189.78L17.80,189.12L21.70,188.04L25.60,186.53L29.50,184.62L33.40,182.33L37.30,179.68L41.20,176.69L45.10,173.40L49.00,169.83L52.90,166.01L56.80,161.97L60.70,157.74L64.60,153.35L68.50,148.82L72.40,144.17L76.30,139.44L80.20,134.63L84.10,129.76L88.00,124.85L91.90,119.91L95.80,114.95L99.70,109.98L103.60,104.99L107.50,100.00L111.40,95.01L115.30,90.02L119.20,85.05L123.10,80.09L127.00,75.15L130.90,70.24L134.80,65.37L138.70,60.56L142.60,55.83L146.50,51.18L150.40,46.65L154.30,42.26L158.20,38.03L162.10,33.99L166.00,30.17L169.90,26.60L173.80,23.31L177.70,20.32L181.60,17.67L185.50,15.38L189.40,13.47L193.30,11.96L197.20,10.88L201.10,10.22L205.00,10.00L208.90,10.22L212.80,10.88L216.70,11.96L220.60,13.47L224.50,15.38L228.40,17.67L232.30,20.32L236.20,23.31L240.10,26.60L244.00,30.17L247.90,33.99L251.80,38.03L255.70,42.26L259.60,46.65L263.50,51.18L267.40,55.83L271.30,60.56L275.20,65.37L279.10,70.24L283.00,75.15L286.90,80.09L290.80,85.05L294.70,90.02L298.60,95.01L302.50,100.00L306.40,104.99L310.30,109.98L314.20,114.95L318.10,119.91L322.00,124.85L325.90,129.76L329.80,134.63L333.70,139.44L337.60,144.17L341.50,148.82L345.40,153.35L349.30,157.74L353.20,161.97L357.10,166.01L361.00,169.83L364.90,173.40L368.80,176.69L372.70,179.68L376.60,182.33L380.50,184.62L384.40,186.53L388.30,188.04L392.20,189.12L396.10,189.78L400.00,190.00L403.90,189.78L407.80,189.12L411.70,188.04L415.60,186.53L419.50,184.62L423.40,182.33L427.30,179.68L431.20,176.69L435.10,173.40L439.00,169.83L442.90,166.01L446.80,161.97L450.70,157.74L454.60,153.35L458.50,148.82L462.40,144.17L466.30,139.44L470.20,134.63L474.10,129.76L478.00,124.85L481.90,119.91L485.80,114.95L489.70,109.98L493.60,104.99L497.50,100.00L501.40,95.01L505.30,90.02L509.20,85.05L513.10,80.09L517.00,75.15L520.90,70.24L524.80,65.37L528.70,60.56L532.60,55.83L536.50,51.18L540.40,46.65L544.30,42.26L548.20,38.03L552.10,33.99L556.00,30.17L559.90,26.60L563.80,23.31L567.70,20.32L571.60,17.67L575.50,15.38L579.40,13.47L583.30,11.96L587.20,10.88L591.10,10.22L595.00,10.00L598.90,10.22L602.80,10.88L606.70,11.96L610.60,13.47L614.50,15.38L618.40,17.67L622.30,20.32L626.20,23.31L630.10,26.60L634.00,30.17L637.90,33.99L641.80,38.03L645.70,42.26L649.60,46.65L653.50,51.18L657.40,55.83L661.30,60.56L665.20,65.37L669.10,70.24L673.00,75.15L676.90,80.09L680.80,85.05L684.70,90.02L688.60,95.01L692.50,100.00L696.40,104.99L700.30,109.98L704.20,114.95L708.10,119.91L712.00,124.85L715.90,129.76L719.80,134.63L723.70,139.44L727.60,144.17L731.50,148.82L735.40,153.35L739.30,157.74L743.20,161.97L747.10,166.01L751.00,169.83L754.90,173.40L758.80,176.69L762.70,179.68L766.60,182.33L770.50,184.62L774.40,186.53L778.30,188.04L782.20,189.12L786.10,189.78L790.00,190.00" fill="none" stroke="purple" stroke-width="1.25"/>
</svg>