<svg xmlns="http://www.w3.org/2000/svg" width="800" height="200" viewBox="0 0 800 200">
<line x1="10" y1="10" x2="10" y2="190" stroke="#0003" stroke-width="1"/>
<line x1="58.75" y1="10" x2="58.75" y2="190" stroke="#0003" stroke-width="1"/>
<line x1="107.5" y1="10" x2="107.5" y2="190" stroke="#0003" stroke-width="1"/>
<line x1="156.25" y1="10" x2="156.25" y2="190" stroke="#0003" stroke-width="1"/>
<line x1="205" y1="10" x2="205" y2="190" stroke="#0003" stroke-width="1"/>
<line x1="253.75" y1="10" x2="253.75" y2="190" stroke="#0003" stroke-width="1"/>
<line x1="302.5" y1="10" x2="302.5" y2="190" stroke="#0003" stroke-width="1"/>
<line x1="351.25" y1="10" x2="351.25" y2="190" stroke="#0003" stroke-width="1"/>
<line x1="400" y1="10" x2="400" y2="190" stroke="#0003" stroke-width="1"/>
<line x1="448.75" y1="10" x2="448.75" y2="190" stroke="#0003" stroke-width="1"/>
<line x1="497.5" y1="10" x2="497.5" y2="190" stroke="#0003" stroke-width="1"/>
<line x1="546.25" y1="10" x2="546.25" y2="190" stroke="#0003" stroke-width="1"/>
<line x1="595" y1="10" x2="595" y2="190" stroke="#0003" stroke-width="1"/>
<line x1="643.75" y1="10" x2="643.75" y2="190" stroke="#0003" stroke-width="1"/>
<line x1="692.5" y1="10" x2="692.5" y2="190" stroke="#0003" stroke-width="1"/>
<line x1="741.25" y1="10" x2="741.25" y2="190" stroke="#0003" stroke-width="1"/>
<line x1="790" y1="10" x2="790" y2="190" stroke="#0003" stroke-width="1"/>
<line x1="10" y1="190" x2="790" y2="190" stroke="#0003" stroke-width="1"/>
<line x1="10" y1="145" x2="790" y2="145" stroke="#0003" stroke-width="1"/>
<line x1="10" y1="100" x2="790" y2="100" stroke="#0003" stroke-width="1"/>
<line x1="10" y1="55" x2="790" y2="55" stroke="#0003" stroke-width="1"/>
<line x1="10" y1="10" x2="790" y2="10" stroke="#0003" stroke-width="1"/>
<line x1="10" y1="190" x2="790" y2="190" stroke="#0008" stroke-width="1"/>
<line x1="10" y1="10" x2="10" y2="190" stroke="#0008" stroke-width="1"/>
<path d="M10.00,190.00L13.90,190.00L17.80,190.00L21.70,190.00L25.60,190.00L29.50,190.00L33.40,190.00L37.30,190.00L41.20,190.00L45.10,190.00L49.00,190.00L52.90,190.00L56.80,190.00L60.70,190.00L64.60,190.00L68.50,190.00L72.40,190.00L76.30,189.98L80.20,189.95L84.10,189.82L88.00,188.84L91.90,183.71L95.80,170.00L99.70,148.44L103.60,124.07L107.50,100.00L111.40,75.93L115.30,51.56L119.20,30.00L123.10,16.29L127.00,11.16L130.90,10.18L134.80,10.05L138.70,10.02L142.60,10.00L146.50,10.00L150.40,10.00L154.30,10.00L158.20,10.00L162.10,10.00L166.00,10.00L169.90,10.00L173.80,10.00L177.70,10.00L181.60,10.00L185.50,10.00L189.40,10.00L193.30,10.00L197.20,10.00L201.10,10.00L205.00,10.00L208.90,10.00L212.80,10.00L216.70,10.00L220.60,10.00L224.50,10.00L228.40,10.00L232.30,10.00L236.20,10.00L240.10,10.00L244.00,10.00L247.90,10.00L251.80,10.00L255.70,10.00L259.60,10.00L263.50,10.00L267.40,10.00L271.30,10.02L275.20,10.05L279.10,10.18L283.00,11.16L286.90,16.29L290.80,30.00L294.70,51.56L298.60,75.93L302.50,100.00L306.40,124.07L310.30,148.44L314.20,170.00L318.10,183.71L322.00,188.84L325.90,189.82L329.80,189.95L333.70,189.98L337.60,190.00L341.50,190.00L345.40,190.00L349.30,190.00L353.20,190.00L357.10,190.00L361.00,190.00L364.90,190.00L368.80,190.00L372.70,190.00L376.60,190.00L380.50,190.00L384.40,190.00L388.30,190.00L392.20,190.00L396.10,190.00L400.00,190.00L403.90,190.00L407.80,190.00L411.70,190.00L415.60,190.00L419.50,190.00L423.40,190.00L427.30,190.00L431.20,190.00L435.10,190.00L439.00,190.00L442.90,190.00L446.80,190.00L450.70,190.00L454.60,190.00L458.50,190.00L462.40,190.00L466.30,189.98L470.20,189.95L474.10,189.82L478.00,188.84L481.90,183.71L485.80,170.00L489.70,148.44L493.60,124.07L497.50,100.00L501.40,75.93L505.30,51.56L509.20,30.00L513.10,16.29L517.00,11.16L520.90,10.18L524.80,10.05L528.70,10.02L532.60,10.00L536.50,10.00L540.40,10.00L544.30,10.00L548.20,10.00L552.10,10.00L556.00,10.00L559.90,10.00L563.80,10.00L567.70,10.00L571.60,10.00L575.50,10.00L579.40,10.00L583.30,10.00L587.20,10.00L591.10,10.00L595.00,10.00L598.90,10.00L602.80,10.00L606.70,10.00L610.60,10.00L614.50,10.00L618.40,10.00L622.30,10.00L626.20,10.00L630.10,10.00L634.00,10.00L637.90,10.00L641.80,10.00L645.70,10.00L649.60,10.00L653.50,10.00L657.40,10.00L661.30,10.02L665.20,10.05L669.10,10.18L673.00,11.16L676.90,16.29L680.80,30.00L684.70,51.56L688.60,75.93L692.50,100.00L696.40,124.07L700.30,148.44L704.20,170.00L708.10,183.71L712.00,188.84L715.90,189.82L719.80,189.95L723.70,189.98L727.60,190.00L731.50,190.00L735.40,190.00L739.30,190.00L743.20,190.00L747.10,190.00L751.00,190.00L754.90,190.00L758.80,190.00L762.70,190.00L766.60,190.00L770.50,190.00L774.40,190.00L778.30,190.00L782.20,190.00L786.10,190.00L790.00,190.00" fill="none" stroke="orange" stroke-width="1"/>
<path d="M10.00,190.00L13.90,190.00L17.80,190.00L21.70,190.00L25.60,190.00L29.50,190.00L33.40,190.00L37.30,190.00L41.20,189.99L45.10,189.98L49.00,189.95L52.90,189.88L56.80,189.74L60.70,189.48L64.60,189.03L68.50,188.28L72.40,187.05L76.30,185.13L80.20,182.19L84.10,177.79L88.00,171.40L91.90,162.48L95.80,150.62L99.70,135.83L103.60,118.60L107.50,100.00L111.40,81.40L115.30,64.17L119.20,49.38L123.10,37.52L127.00,28.60L130.90,22.21L134.80,17.81L138.70,14.87L142.60,12.95L146.50,11.72L150.40,10.97L154.30,10.52L158.20,10.26L162.10,10.12L166.00,10.05L169.90,10.02L173.80,10.01L177.70,10.00L181.60,10.00L185.50,10.00L189.40,10.00L193.30,10.00L197.20,10.00L201.10,10.00L205.00,10.00L208.90,10.00L212.80,10.00L216.70,10.00L220.60,10.00L224.50,10.00L228.40,10.00L232.30,10.00L236.20,10.01L240.10,10.02L244.00,10.05L247.90,10.12L251.80,10.26L255.70,10.52L259.60,10.97L263.50,11.72L267.40,12.95L271.30,14.87L275.20,17.81L279.10,22.21L283.00,28.60L286.90,37.52L290.80,49.38L294.70,64.17L298.60,81.40L302.50,100.00L306.40,118.60L310.30,135.83L314.20,150.62L318.10,162.48L322.00,171.40L325.90,177.79L329.80,182.19L333.70,185.13L337.60,187.05L341.50,188.28L345.40,189.03L349.30,189.48L353.20,189.74L357.10,189.88L361.00,189.95L364.90,189.98L368.80,189.99L372.70,190.00L376.60,190.00L380.50,190.00L384.40,190.00L388.30,190.00L392.20,190.00L396.10,190.00L400.00,190.00L403.90,190.00L407.80,190.00L411.70,190.00L415.60,190.00L419.50,190.00L423.40,190.00L427.30,190.00L431.20,189.99L435.10,189.98L439.00,189.95L442.90,189.88L446.80,189.74L450.70,189.48L454.60,189.03L458.50,188.28L462.40,187.05L466.30,185.13L470.20,182.19L474.10,177.79L478.00,171.40L481.90,162.48L485.80,150.62L489.70,135.83L493.60,118.60L497.50,100.00L501.40,81.40L505.30,64.17L509.20,49.38L513.10,37.52L517.00,28.60L520.90,22.21L524.80,17.81L528.70,14.87L532.60,12.95L536.50,11.72L540.40,10.97L544.30,10.52L548.20,10.26L552.10,10.12L556.00,10.05L559.90,10.02L563.80,10.01L567.70,10.00L571.60,10.00L575.50,10.00L579.40,10.00L583.30,10.00L587.20,10.00L591.10,10.00L595.00,10.00L598.90,10.00L602.80,10.00L606.70,10.00L610.60,10.00L614.50,10.00L618.40,10.00L622.30,10.00L626.20,10.01L630.10,10.02L634.00,10.05L637.90,10.12L641.80,10.26L645.70,10.52L649.60,10.97L653.50,11.72L657.40,12.95L661.30,14.87L665.20,17.81L669.10,22.21L673.00,28.60L676.90,37.52L680.80,49.38L684.70,64.17L688.60,81.40L692.50,100.00L696.40,118.60L700.30,135.83L704.20,150.62L708.10,162.48L712.00,171.40L715.90,177.79L719.80,182.19L723.70,185.13L727.60,187.05L731.50,188.28L735.40,189.03L739.30,189.48L743.20,189.74L747.10,189.88L751.00,189.95L754.90,189.98L758.80,189.99L762.70,190.00L766.60,190.00L770.50,190.00L774.40,190.00L778.30,190.00L782.20,190.00L786.10,190.00L790.00,190.00" fill="none" stroke="green" stroke-width="1"/>
<path d="M10.00,189.03L13.90,189.02L17.80,188.98L21.70,188.90L25.60,188.79L29.50,188.61L33.40,188.36L37.30,188.01L41.20,187.51L45.10,186.81L49.00,185.87L52.90,184.60L56.80,182.93L60.70,180.78L64.60,178.07L68.50,174.69L72.40,170.59L76.30,165.69L80.20,159.95L84.10,153.35L88.00,145.92L91.90,137.71L95.80,128.82L99.70,119.38L103.60,109.55L107.50,99.52L111.40,89.49L115.30,79.66L119.20,70.22L123.10,61.32L127.00,53.11L130.90,45.68L134.80,39.09L138.70,33.35L142.60,28.44L146.50,24.34L150.40,20.97L154.30,18.25L158.20,16.10L162.10,14.43L166.00,13.17L169.90,12.22L173.80,11.53L177.70,11.03L181.60,10.67L185.50,10.42L189.40,10.25L193.30,10.13L197.20,10.06L201.10,10.01L205.00,10.00L208.90,10.01L212.80,10.06L216.70,10.13L220.60,10.25L224.50,10.42L228.40,10.67L232.30,11.03L236.20,11.53L240.10,12.22L244.00,13.17L247.90,14.43L251.80,16.10L255.70,18.25L259.60,20.97L263.50,24.34L267.40,28.44L271.30,33.35L275.20,39.09L279.10,45.68L283.00,53.11L286.90,61.32L290.80,70.22L294.70,79.66L298.60,89.49L302.50,99.52L306.40,109.55L310.30,119.38L314.20,128.82L318.10,137.71L322.00,145.92L325.90,153.35L329.80,159.95L333.70,165.69L337.60,170.59L341.50,174.69L345.40,178.07L349.30,180.78L353.20,182.93L357.10,184.60L361.00,185.87L364.90,186.81L368.80,187.51L372.70,188.01L376.60,188.36L380.50,188.61L384.40,188.79L388.30,188.90L392.20,188.98L396.10,189.02L400.00,189.03L403.90,189.02L407.80,188.98L411.70,188.90L415.60,188.79L419.50,188.61L423.40,188.36L427.30,188.01L431.20,187.51L435.10,186.81L439.00,185.87L442.90,184.60L446.80,182.93L450.70,180.78L454.60,178.07L458.50,174.69L462.40,170.59L466.30,165.69L470.20,159.95L474.10,153.35L478.00,145.92L481.90,137.71L485.80,128.82L489.70,119.38L493.60,109.55L497.50,99.52L501.40,89.49L505.30,79.66L509.20,70.22L513.10,61.32L517.00,53.11L520.90,45.68L524.80,39.09L528.70,33.35L532.60,28.44L536.50,24.34L540.40,20.97L544.30,18.25L548.20,16.10L552.10,14.43L556.00,13.17L559.90,12.22L563.80,11.53L567.70,11.03L571.60,10.67L575.50,10.42L579.40,10.25L583.30,10.13L587.20,10.06L591.10,10.01L595.00,10.00L598.90,10.01L602.80,10.06L606.70,10.13L610.60,10.25L614.50,10.42L618.40,10.67L622.30,11.03L626.20,11.53L630.10,12.22L634.00,13.17L637.90,14.43L641.80,16.10L645.70,18.25L649.60,20.97L653.50,24.34L657.40,28.44L661.30,33.35L665.20,39.09L669.10,45.68L673.00,53.11L676.90,61.32L680.80,70.22L684.70,79.66L688.60,89.49L692.50,99.52L696.40,109.55L700.30,119.38L704.20,128.82L708.10,137.71L712.00,145.92L715.90,153.35L719.80,159.95L723.70,165.69L727.60,170.59L731.50,174.69L735.40,178.07L739.30,180.78L743.20,182.93L747.10,184.60L751.00,185.87L754.90,186.81L758.80,187.51L762.70,188.01L766.60,188.36L770.50,188.61L774.40,188.79L778.30,188.90L782.20,188.98L786.10,189.02L790.00,189.03" fill="none" stroke="steelblue" stroke-width="1"/>
<path d="M10.00,181.99L13.90,181.78L17.80,181.15L21.70,180.11L25.60,178.67L29.50,176.85L33.40,174.66L37.30,172.13L41.20,169.28L45.10,166.13L49.00,162.72L52.90,159.07L56.80,155.21L60.70,151.16L64.60,146.97L68.50,142.64L72.40,138.20L76.30,133.67L80.20,129.08L84.10,124.43L88.00,119.74L91.90,115.02L95.80,110.28L99.70,105.53L103.60,100.76L107.50,95.99L111.40,91.23L115.30,86.46L119.20,81.71L123.10,76.97L127.00,72.25L130.90,67.56L134.80,62.91L138.70,58.31L142.60,53.79L146.50,49.35L150.40,45.02L154.30,40.83L158.20,36.78L162.10,32.92L166.00,29.27L169.90,25.86L173.80,22.71L177.70,19.86L181.60,17.33L185.50,15.14L189.40,13.31L193.30,11.88L197.20,10.84L201.10,10.21L205.00,10.00L208.90,10.21L212.80,10.84L216.70,11.88L220.60,13.31L224.50,15.14L228.40,17.33L232.30,19.86L236.20,22.71L240.10,25.86L244.00,29.27L247.90,32.92L251.80,36.78L255.70,40.83L259.60,45.02L263.50,49.35L267.40,53.79L271.30,58.31L275.20,62.91L279.10,67.56L283.00,72.25L286.90,76.97L290.80,81.71L294.70,86.46L298.60,91.23L302.50,95.99L306.40,100.76L310.30,105.53L314.20,110.28L318.10,115.02L322.00,119.74L325.90,124.43L329.80,129.08L333.70,133.67L337.60,138.20L341.50,142.64L345.40,146.97L349.30,151.16L353.20,155.21L357.10,159.07L361.00,162.72L364.90,166.13L368.80,169.28L372.70,172.13L376.60,174.66L380.50,176.85L384.40,178.67L388.30,180.11L392.20,181.15L396.10,181.78L400.00,181.99L403.90,181.78L407.80,181.15L411.70,180.11L415.60,178.67L419.50,176.85L423.40,174.66L427.30,172.13L431.20,169.28L435.10,166.13L439.00,162.72L442.90,159.07L446.80,155.21L450.70,151.16L454.60,146.97L458.50,142.64L462.40,138.20L466.30,133.67L470.20,129.08L474.10,124.43L478.00,119.74L481.90,115.02L485.80,110.28L489.70,105.53L493.60,100.76L497.50,95.99L501.40,91.23L505.30,86.46L509.20,81.71L513.10,76.97L517.00,72.25L520.90,67.56L524.80,62.91L528.70,58.31L532.60,53.79L536.50,49.35L540.40,45.02L544.30,40.83L548.20,36.78L552.10,32.92L556.00,29.27L559.90,25.86L563.80,22.71L567.70,19.86L571.60,17.33L575.50,15.14L579.40,13.31L583.30,11.88L587.20,10.84L591.10,10.21L595.00,10.00L598.90,10.21L602.80,10.84L606.70,11.88L610.60,13.31L614.50,15.14L618.40,17.33L622.30,19.86L626.20,22.71L630.10,25.86L634.00,29.27L637.90,32.92L641.80,36.78L645.70,40.83L649.60,45.02L653.50,49.35L657.40,53.79L661.30,58.31L665.20,62.91L669.10,67.56L673.00,72.25L676.90,76.97L680.80,81.71L684.70,86.46L688.60,91.23L692.50,95.99L696.40,100.76L700.30,105.53L704.20,110.28L708.10,115.02L712.00,119.74L715.90,124.43L719.80,129.08L723.70,133.67L727.60,138.20L731.50,142.64L735.40,146.97L739.30,151.16L743.20,155.21L747.10,159.07L751.00,162.72L754.90,166.13L758.80,169.28L762.70,172.13L766.60,174.66L770.50,176.85L774.40,178.67L778.30,180.11L782.20,181.15L786.10,181.78L790.00,181.99" fill="none" stroke="purple" stroke-width="1"/>
</svg>