<svg xmlns="http://www.w3.org/2000/svg" width="800" height="200" viewBox="0 0 800 200">
<line x1="10" y1="10" x2="10" y2="190" stroke="#8883" stroke-width="1"/>
<line x1="58.75" y1="10" x2="58.75" y2="190" stroke="#8883" stroke-width="1"/>
<line x1="107.5" y1="10" x2="107.5" y2="190" stroke="#8883" stroke-width="1"/>
<line x1="156.25" y1="10" x2="156.25" y2="190" stroke="#8883" stroke-width="1"/>
<line x1="205" y1="10" x2="205" y2="190" stroke="#8883" stroke-width="1"/>
<line x1="253.75" y1="10" x2="253.75" y2="190" stroke="#8883" stroke-width="1"/>
<line x1="302.5" y1="10" x2="302.5" y2="190" stroke="#8883" stroke-width="1"/>
<line x1="351.25" y1="10" x2="351.25" y2="190" stroke="#8883" stroke-width="1"/>
<line x1="400" y1="10" x2="400" y2="190" stroke="#8883" stroke-width="1"/>
<line x1="448.75" y1="10" x2="448.75" y2="190" stroke="#8883" stroke-width="1"/>
<line x1="497.5" y1="10" x2="497.5" y2="190" stroke="#8883" stroke-width="1"/>
<line x1="546.25" y1="10" x2="546.25" y2="190" stroke="#8883" stroke-width="1"/>
<line x1="595" y1="10" x2="595" y2="190" stroke="#8883" stroke-width="1"/>
<line x1="643.75" y1="10" x2="643.75" y2="190" stroke="#8883" stroke-width="1"/>
<line x1="692.5" y1="10" x2="692.5" y2="190" stroke="#8883" stroke-width="1"/>
<line x1="741.25" y1="10" x2="741.25" y2="190" stroke="#8883" stroke-width="1"/>
<line x1="790" y1="10" x2="790" y2="190" stroke="#8883" stroke-width="1"/>
<line x1="10" y1="190" x2="790" y2="190" stroke="#8883" stroke-width="1"/>
<line x1="10" y1="145" x2="790" y2="145" stroke="#8883" stroke-width="1"/>
<line x1="10" y1="100" x2="790" y2="100" stroke="#8883" stroke-width="1"/>
<line x1="10" y1="55" x2="790" y2="55" stroke="#8883" stroke-width="1"/>
<line x1="10" y1="10" x2="790" y2="10" stroke="#8883" stroke-width="1"/>
<line x1="10" y1="190" x2="790" y2="190" stroke="#8888" stroke-width="1"/>
<line x1="10" y1="10" x2="10" y2="190" stroke="#8888" stroke-width="1"/>
<path d="M10.00,190.00L13.90,190.00L17.80,190.00L21.70,190.00L25.60,190.00L29.50,190.00L33.40,190.00L37.30,190.00L41.20,190.00L45.10,190.00L49.00,190.00L52.90,190.00L56.80,190.00L60.70,190.00L64.60,190.00L68.50,190.00L72.40,190.00L76.30,189.98L80.20,189.95L84.10,189.82L88.00,188.84L91.90,183.71L95.80,170.00L99.70,148.44L103.60,124.07L107.50,100.00L111.40,75.93L115.30,51.56L119.20,30.00L123.10,16.29L127.00,11.16L130.90,10.18L134.80,10.05L138.70,10.02L142.60,10.00L146.50,10.00L150.40,10.00L154.30,10.00L158.20,10.00L162.10,10.00L166.00,10.00L169.90,10.00L173.80,10.00L177.70,10.00L181.60,10.00L185.50,10.00L189.40,10.00L193.30,10.00L197.20,10.00L201.10,10.00L205.00,10.00L208.90,10.00L212.80,10.00L216.70,10.00L220.60,10.00L224.50,10.00L228.40,10.00L232.30,10.00L236.20,10.00L240.10,10.00L244.00,10.00L247.90,10.00L251.80,10.00L255.70,10.00L259.60,10.00L263.50,10.00L267.40,10.00L271.30,10.02L275.20,10.05L279.10,10.18L283.00,11.16L286.90,16.29L290.80,30.00L294.70,51.56L298.60,75.93L302.50,100.00L306.40,124.07L310.30,148.44L314.20,170.00L318.10,183.71L322.00,188.84L325.90,189.82L329.80,189.95L333.70,189.98L337.60,190.00L341.50,190.00L345.40,190.00L349.30,190.00L353.20,190.00L357.10,190.00L361.00,190.00L364.90,190.00L368.80,190.00L372.70,190.00L376.60,190.00L380.50,190.00L384.40,190.00L388.30,190.00L392.20,190.00L396.10,190.00L400.00,190.00L403.90,190.00L407.80,190.00L411.70,190.00L415.60,190.00L419.50,190.00L423.40,190.00L427.30,190.00L431.20,190.00L435.10,190.00L439.00,190.00L442.90,190.00L446.80,190.00L450.70,190.00L454.60,190.00L458.50,190.00L462.40,190.00L466.30,189.98L470.20,189.95L474.10,189.82L478.00,188.84L481.90,183.71L485.80,170.00L489.70,148.44L493.60,124.07L497.50,100.00L501.40,75.93L505.30,51.56L509.20,30.00L513.10,16.29L517.00,11.16L520.90,10.18L524.80,10.05L528.70,10.02L532.60,10.00L536.50,10.00L540.40,10.00L544.30,10.00L548.20,10.00L552.10,10.00L556.00,10.00L559.90,10.00L563.80,10.00L567.70,10.00L571.60,10.00L575.50,10.00L579.40,10.00L583.30,10.00L587.20,10.00L591.10,10.00L595.00,10.00L598.90,10.00L602.80,10.00L606.70,10.00L610.60,10.00L614.50,10.00L618.40,10.00L622.30,10.00L626.20,10.00L630.10,10.00L634.00,10.00L637.90,10.00L641.80,10.00L645.70,10.00L649.60,10.00L653.50,10.00L657.40,10.00L661.30,10.02L665.20,10.05L669.10,10.18L673.00,11.16L676.90,16.29L680.80,30.00L684.70,51.56L688.60,75.93L692.50,100.00L696.40,124.07L700.30,148.44L704.20,170.00L708.10,183.71L712.00,188.84L715.90,189.82L719.80,189.95L723.70,189.98L727.60,190.00L731.50,190.00L735.40,190.00L739.30,190.00L743.20,190.00L747.10,190.00L751.00,190.00L754.90,190.00L758.80,190.00L762.70,190.00L766.60,190.00L770.50,190.00L774.40,190.00L778.30,190.00L782.20,190.00L786.10,190.00L790.00,190.00" fill="none" stroke="orange" stroke-width="1.25"/>
<path d="M10.00,190.00L13.90,190.00L17.80,190.00L21.70,190.00L25.60,190.00L29.50,190.00L33.40,190.00L37.30,190.00L41.20,189.99L45.10,189.98L49.00,189.94L52.90,189.86L56.80,189.72L60.70,189.44L64.60,188.97L68.50,188.17L72.40,186.90L76.30,184.91L80.20,181.88L84.10,177.38L88.00,170.89L91.90,161.89L95.80,150.04L99.70,135.35L103.60,118.33L107.50,100.00L111.40,81.67L115.30,64.65L119.20,49.96L123.10,38.11L127.00,29.11L130.90,22.62L134.80,18.12L138.70,15.09L142.60,13.10L146.50,11.83L150.40,11.03L154.30,10.56L158.20,10.28L162.10,10.14L166.00,10.06L169.90,10.02L173.80,10.01L177.70,10.00L181.60,10.00L185.50,10.00L189.40,10.00L193.30,10.00L197.20,10.00L201.10,10.00L205.00,10.00L208.90,10.00L212.80,10.00L216.70,10.00L220.60,10.00L224.50,10.00L228.40,10.00L232.30,10.00L236.20,10.01L240.10,10.02L244.00,10.06L247.90,10.14L251.80,10.28L255.70,10.56L259.60,11.03L263.50,11.83L267.40,13.10L271.30,15.09L275.20,18.12L279.10,22.62L283.00,29.11L286.90,38.11L290.80,49.96L294.70,64.65L298.60,81.67L302.50,100.00L306.40,118.33L310.30,135.35L314.20,150.04L318.10,161.89L322.00,170.89L325.90,177.38L329.80,181.88L333.70,184.91L337.60,186.90L341.50,188.17L345.40,188.97L349.30,189.44L353.20,189.72L357.10,189.86L361.00,189.94L364.90,189.98L368.80,189.99L372.70,190.00L376.60,190.00L380.50,190.00L384.40,190.00L388.30,190.00L392.20,190.00L396.10,190.00L400.00,190.00L403.90,190.00L407.80,190.00L411.70,190.00L415.60,190.00L419.50,190.00L423.40,190.00L427.30,190.00L431.20,189.99L435.10,189.98L439.00,189.94L442.90,189.86L446.80,189.72L450.70,189.44L454.60,188.97L458.50,188.17L462.40,186.90L466.30,184.91L470.20,181.88L474.10,177.38L478.00,170.89L481.90,161.89L485.80,150.04L489.70,135.35L493.60,118.33L497.50,100.00L501.40,81.67L505.30,64.65L509.20,49.96L513.10,38.11L517.00,29.11L520.90,22.62L524.80,18.12L528.70,15.09L532.60,13.10L536.50,11.83L540.40,11.03L544.30,10.56L548.20,10.28L552.10,10.14L556.00,10.06L559.90,10.02L563.80,10.01L567.70,10.00L571.60,10.00L575.50,10.00L579.40,10.00L583.30,10.00L587.20,10.00L591.10,10.00L595.00,10.00L598.90,10.00L602.80,10.00L606.70,10.00L610.60,10.00L614.50,10.00L618.40,10.00L622.30,10.00L626.20,10.01L630.10,10.02L634.00,10.06L637.90,10.14L641.80,10.28L645.70,10.56L649.60,11.03L653.50,11.83L657.40,13.10L661.30,15.09L665.20,18.12L669.10,22.62L673.00,29.11L676.90,38.11L680.80,49.96L684.70,64.65L688.60,81.67L692.50,100.00L696.40,118.33L700.30,135.35L704.20,150.04L708.10,161.89L712.00,170.89L715.90,177.38L719.80,181.88L723.70,184.91L727.60,186.90L731.50,188.17L735.40,188.97L739.30,189.44L743.20,189.72L747.10,189.86L751.00,189.94L754.90,189.98L758.80,189.99L762.70,190.00L766.60,190.00L770.50,190.00L774.40,190.00L778.30,190.00L782.20,190.00L786.10,190.00L790.00,190.00" fill="none" stroke="green" stroke-width="1.25"/>
<path d="M10.00,190.00L13.90,189.98L17.80,189.90L21.70,189.77L25.60,189.56L29.50,189.27L33.40,188.86L37.30,188.30L41.20,187.55L45.10,186.55L49.00,185.25L52.90,183.59L56.80,181.50L60.70,178.93L64.60,175.79L68.50,172.04L72.40,167.63L76.30,162.53L80.20,156.71L84.10,150.20L88.00,143.02L91.90,135.23L95.80,126.92L99.70,118.19L103.60,109.17L107.50,100.00L111.40,90.83L115.30,81.81L119.20,73.08L123.10,64.77L127.00,56.98L130.90,49.80L134.80,43.29L138.70,37.47L142.60,32.37L146.50,27.96L150.40,24.21L154.30,21.07L158.20,18.50L162.10,16.41L166.00,14.75L169.90,13.45L173.80,12.45L177.70,11.70L181.60,11.14L185.50,10.73L189.40,10.44L193.30,10.23L197.20,10.10L201.10,10.02L205.00,10.00L208.90,10.02L212.80,10.10L216.70,10.23L220.60,10.44L224.50,10.73L228.40,11.14L232.30,11.70L236.20,12.45L240.10,13.45L244.00,14.75L247.90,16.41L251.80,18.50L255.70,21.07L259.60,24.21L263.50,27.96L267.40,32.37L271.30,37.47L275.20,43.29L279.10,49.80L283.00,56.98L286.90,64.77L290.80,73.08L294.70,81.81L298.60,90.83L302.50,100.00L306.40,109.17L310.30,118.19L314.20,126.92L318.10,135.23L322.00,143.02L325.90,150.20L329.80,156.71L333.70,162.53L337.60,167.63L341.50,172.04L345.40,175.79L349.30,178.93L353.20,181.50L357.10,183.59L361.00,185.25L364.90,186.55L368.80,187.55L372.70,188.30L376.60,188.86L380.50,189.27L384.40,189.56L388.30,189.77L392.20,189.90L396.10,189.98L400.00,190.00L403.90,189.98L407.80,189.90L411.70,189.77L415.60,189.56L419.50,189.27L423.40,188.86L427.30,188.30L431.20,187.55L435.10,186.55L439.00,185.25L442.90,183.59L446.80,181.50L450.70,178.93L454.60,175.79L458.50,172.04L462.40,167.63L466.30,162.53L470.20,156.71L474.10,150.20L478.00,143.02L481.90,135.23L485.80,126.92L489.70,118.19L493.60,109.17L497.50,100.00L501.40,90.83L505.30,81.81L509.20,73.08L513.10,64.77L517.00,56.98L520.90,49.80L524.80,43.29L528.70,37.47L532.60,32.37L536.50,27.96L540.40,24.21L544.30,21.07L548.20,18.50L552.10,16.41L556.00,14.75L559.90,13.45L563.80,12.45L567.70,11.70L571.60,11.14L575.50,10.73L579.40,10.44L583.30,10.23L587.20,10.10L591.10,10.02L595.00,10.00L598.90,10.02L602.80,10.10L606.70,10.23L610.60,10.44L614.50,10.73L618.40,11.14L622.30,11.70L626.20,12.45L630.10,13.45L634.00,14.75L637.90,16.41L641.80,18.50L645.70,21.07L649.60,24.21L653.50,27.96L657.40,32.37L661.30,37.47L665.20,43.29L669.10,49.80L673.00,56.98L676.90,64.77L680.80,73.08L684.70,81.81L688.60,90.83L692.50,100.00L696.40,109.17L700.30,118.19L704.20,126.92L708.10,135.23L712.00,143.02L715.90,150.20L719.80,156.71L723.70,162.53L727.60,167.63L731.50,172.04L735.40,175.79L739.30,178.93L743.20,181.50L747.10,183.59L751.00,185.25L754.90,186.55L758.80,187.55L762.70,188.30L766.60,188.86L770.50,189.27L774.40,189.56L778.30,189.77L782.20,189.90L786.10,189.98L790.00,190.00" fill="none" stroke="steelblue" stroke-width="1.25"/>
<path d="M10.00,190.00L13.90,189.94L17.80,189.70L21.70,189.22L25.60,188.46L29.50,187.40L33.40,186.01L37.30,184.26L41.20,182.15L45.10,179.67L49.00,176.80L52.90,173.57L56.80,169.98L60.70,166.03L64.60,161.75L68.50,157.16L72.40,152.28L76.30,147.14L80.20,141.76L84.10,136.18L88.00,130.42L91.90,124.51L95.80,118.49L99.70,112.37L103.60,106.20L107.50,100.00L111.40,93.80L115.30,87.63L119.20,81.51L123.10,75.49L127.00,69.58L130.90,63.82L134.80,58.24L138.70,52.86L142.60,47.72L146.50,42.84L150.40,38.25L154.30,33.97L158.20,30.02L162.10,26.43L166.00,23.20L169.90,20.33L173.80,17.85L177.70,15.74L181.60,13.99L185.50,12.60L189.40,11.54L193.30,10.78L197.20,10.30L201.10,10.06L205.00,10.00L208.90,10.06L212.80,10.30L216.70,10.78L220.60,11.54L224.50,12.60L228.40,13.99L232.30,15.74L236.20,17.85L240.10,20.33L244.00,23.20L247.90,26.43L251.80,30.02L255.70,33.97L259.60,38.25L263.50,42.84L267.40,47.72L271.30,52.86L275.20,58.24L279.10,63.82L283.00,69.58L286.90,75.49L290.80,81.51L294.70,87.63L298.60,93.80L302.50,100.00L306.40,106.20L310.30,112.37L314.20,118.49L318.10,124.51L322.00,130.42L325.90,136.18L329.80,141.76L333.70,147.14L337.60,152.28L341.50,157.16L345.40,161.75L349.30,166.03L353.20,169.98L357.10,173.57L361.00,176.80L364.90,179.67L368.80,182.15L372.70,184.26L376.60,186.01L380.50,187.40L384.40,188.46L388.30,189.22L392.20,189.70L396.10,189.94L400.00,190.00L403.90,189.94L407.80,189.70L411.70,189.22L415.60,188.46L419.50,187.40L423.40,186.01L427.30,184.26L431.20,182.15L435.10,179.67L439.00,176.80L442.90,173.57L446.80,169.98L450.70,166.03L454.60,161.75L458.50,157.16L462.40,152.28L466.30,147.14L470.20,141.76L474.10,136.18L478.00,130.42L481.90,124.51L485.80,118.49L489.70,112.37L493.60,106.20L497.50,100.00L501.40,93.80L505.30,87.63L509.20,81.51L513.10,75.49L517.00,69.58L520.90,63.82L524.80,58.24L528.70,52.86L532.60,47.72L536.50,42.84L540.40,38.25L544.30,33.97L548.20,30.02L552.10,26.43L556.00,23.20L559.90,20.33L563.80,17.85L567.70,15.74L571.60,13.99L575.50,12.60L579.40,11.54L583.30,10.78L587.20,10.30L591.10,10.06L595.00,10.00L598.90,10.06L602.80,10.30L606.70,10.78L610.60,11.54L614.50,12.60L618.40,13.99L622.30,15.74L626.20,17.85L630.10,20.33L634.00,23.20L637.90,26.43L641.80,30.02L645.70,33.97L649.60,38.25L653.50,42.84L657.40,47.72L661.30,52.86L665.20,58.24L669.10,63.82L673.00,69.58L676.90,75.49L680.80,81.51L684.70,87.63L688.60,93.80L692.50,100.00L696.40,106.20L700.30,112.37L704.20,118.49L708.10,124.51L712.00,130.42L715.90,136.18L719.80,141.76L723.70,147.14L727.60,152.28L731.50,157.16L735.40,161.75L739.30,166.03L743.20,169.98L747.10,173.57L751.00,176.80L754.90,179.67L758.80,182.15L762.70,184.26L766.60,186.01L770.50,187.40L774.40,188.46L778.30,189.22L782.20,189.70L786.10,189.94L790.00,190.00" fill="none" stroke="blue" stroke-width="1.25"/>
<path d="M10.00,190.00L13.90,189.78L17.80,189.12L21.70,188.04L25.60,186.53L29.50,184.62L33.40,182.33L37.30,179.68L41.20,176.69L45.10,173.40L49.00,169.83L52.90,166.01L56.80,161.97L60.70,157.74L64.60,153.35L68.50,148.82L72.40,144.17L76.30,139.44L80.20,134.63L84.10,129.76L88.00,124.85L91.90,119.91L95.80,114.95L99.70,109.98L103.60,104.99L107.50,100.00L111.40,95.01L115.30,90.02L119.20,85.05L123.10,80.09L127.00,75.15L130.90,70.24L134.80,65.37L138.70,60.56L142.60,55.83L146.50,51.18L150.40,46.65L154.30,42.26L158.20,38.03L162.10,33.99L166.00,30.17L169.90,26.60L173.80,23.31L177.70,20.32L181.60,17.67L185.50,15.38L189.40,13.47L193.30,11.96L197.20,10.88L201.10,10.22L205.00,10.00L208.90,10.22L212.80,10.88L216.70,11.96L220.60,13.47L224.50,15.38L228.40,17.67L232.30,20.32L236.20,23.31L240.10,26.60L244.00,30.17L247.90,33.99L251.80,38.03L255.70,42.26L259.60,46.65L263.50,51.18L267.40,55.83L271.30,60.56L275.20,65.37L279.10,70.24L283.00,75.15L286.90,80.09L290.80,85.05L294.70,90.02L298.60,95.01L302.50,100.00L306.40,104.99L310.30,109.98L314.20,114.95L318.10,119.91L322.00,124.85L325.90,129.76L329.80,134.63L333.70,139.44L337.60,144.17L341.50,148.82L345.40,153.35L349.30,157.74L353.20,161.97L357.10,166.01L361.00,169.83L364.90,173.40L368.80,176.69L372.70,179.68L376.60,182.33L380.50,184.62L384.40,186.53L388.30,188.04L392.20,189.12L396.10,189.78L400.00,190.00L403.90,189.78L407.80,189.12L411.70,188.04L415.60,186.53L419.50,184.62L423.40,182.33L427.30,179.68L431.20,176.69L435.10,173.40L439.00,169.83L442.90,166.01L446.80,161.97L450.70,157.74L454.60,153.35L458.50,148.82L462.40,144.17L466.30,139.44L470.20,134.63L474.10,129.76L478.00,124.85L481.90,119.91L485.80,114.95L489.70,109.98L493.60,104.99L497.50,100.00L501.40,95.01L505.30,90.02L509.20,85.05L513.10,80.09L517.00,75.15L520.90,70.24L524.80,65.37L528.70,60.56L532.60,55.83L536.50,51.18L540.40,46.65L544.30,42.26L548.20,38.03L552.10,33.99L556.00,30.17L559.90,26.60L563.80,23.31L567.70,20.32L571.60,17.67L575.50,15.38L579.40,13.47L583.30,11.96L587.20,10.88L591.10,10.22L595.00,10.00L598.90,10.22L602.80,10.88L606.70,11.96L610.60,13.47L614.50,15.38L618.40,17.67L622.30,20.32L626.20,23.31L630.10,26.60L634.00,30.17L637.90,33.99L641.80,38.03L645.70,42.26L649.60,46.65L653.50,51.18L657.40,55.83L661.30,60.56L665.20,65.37L669.10,70.24L673.00,75.15L676.90,80.09L680.80,85.05L684.70,90.02L688.60,95.01L692.50,100.00L696.40,104.99L700.30,109.98L704.20,114.95L708.10,119.91L712.00,124.85L715.90,129.76L719.80,134.63L723.70,139.44L727.60,144.17L731.50,148.82L735.40,153.35L739.30,157.74L743.20,161.97L747.10,166.01L751.00,169.83L754.90,173.40L758.80,176.69L762.70,179.68L766.60,182.33L770.50,184.62L774.40,186.53L778.30,188.04L782.20,189.12L786.10,189.78L790.00,190.00" fill="none" stroke="purple" stroke-width="1.25"/>
</svg>